<svg width="202" height="51" fill="none" xmlns="http://www.w3.org/2000/svg"><path d="M76.936 24.337c0-.724-.188-1.27-.562-1.636-.366-.374-1.038-.76-2.014-1.16-1.782-.675-3.064-1.464-3.845-2.368-.782-.911-1.172-1.985-1.172-3.222 0-1.498.529-2.698 1.587-3.601 1.066-.912 2.417-1.368 4.052-1.368 1.09 0 2.063.232 2.918.696a4.708 4.708 0 011.965 1.941c.464.838.696 1.79.696 2.857h-3.577c0-.83-.179-1.461-.537-1.892-.35-.44-.858-.66-1.526-.66-.626 0-1.115.188-1.465.562-.35.366-.524.862-.524 1.49 0 .487.195.93.586 1.33.39.39 1.082.797 2.075 1.22 1.733.627 2.99 1.396 3.772 2.308.79.911 1.184 2.07 1.184 3.479 0 1.546-.493 2.754-1.477 3.625-.985.87-2.324 1.306-4.016 1.306-1.148 0-2.194-.236-3.138-.708a5.35 5.35 0 01-2.221-2.026c-.53-.88-.794-1.917-.794-3.113h3.601c0 1.025.2 1.77.599 2.234.398.464 1.05.696 1.953.696 1.253 0 1.88-.664 1.88-1.99zm9.07-8.545l.097 1.22c.773-.976 1.794-1.464 3.064-1.464 1.318 0 2.25.594 2.795 1.782.757-1.188 1.835-1.782 3.235-1.782 2.311 0 3.495 1.599 3.552 4.797V29h-3.454v-8.435c0-.765-.106-1.31-.317-1.636-.212-.325-.57-.488-1.075-.488-.643 0-1.123.395-1.44 1.184l.024.415V29h-3.454v-8.41c0-.758-.102-1.303-.305-1.636-.204-.342-.566-.513-1.087-.513-.594 0-1.066.321-1.416.964V29h-3.454V15.792h3.234zM107.586 29c-.097-.203-.195-.545-.293-1.025-.618.846-1.456 1.27-2.514 1.27-1.107 0-2.027-.367-2.759-1.1-.724-.732-1.086-1.68-1.086-2.844 0-1.383.439-2.453 1.318-3.21.887-.757 2.161-1.144 3.821-1.16h1.05V19.87c0-.594-.102-1.013-.306-1.257-.203-.244-.5-.366-.891-.366-.862 0-1.294.504-1.294 1.513h-3.454c0-1.22.455-2.226 1.367-3.015.919-.797 2.079-1.196 3.479-1.196 1.448 0 2.567.378 3.357 1.135.797.749 1.196 1.823 1.196 3.223v6.213c.016 1.14.179 2.03.488 2.674V29h-3.479zm-2.038-2.466c.382 0 .708-.077.976-.232.269-.154.468-.337.599-.55v-2.746h-.831c-.585 0-1.049.188-1.391.562-.334.374-.501.875-.501 1.501 0 .977.383 1.465 1.148 1.465zm14.05-7.41l-1.147-.097c-.944 0-1.583.415-1.917 1.245V29h-3.467V15.792h3.26l.097 1.428c.546-1.115 1.298-1.672 2.259-1.672.39 0 .708.053.952.159l-.037 3.418zm6.409-6.58v3.248h1.77v2.6h-1.77v6.555c0 .521.069.88.207 1.075.147.195.424.293.83.293.334 0 .607-.029.818-.086l-.024 2.686c-.586.22-1.221.33-1.904.33-2.23 0-3.357-1.279-3.382-3.834v-7.019h-1.526v-2.6h1.526v-3.247h3.455zM135.615 29V11.227h4.699c2.076 0 3.728.659 4.957 1.977 1.236 1.319 1.867 3.125 1.892 5.42v2.88c0 2.336-.619 4.172-1.856 5.506-1.229 1.327-2.925 1.99-5.09 1.99h-4.602zm3.589-14.783v11.804h1.074c1.196 0 2.038-.313 2.527-.94.488-.634.744-1.725.769-3.27v-3.09c0-1.66-.232-2.815-.696-3.466-.464-.66-1.253-1.005-2.368-1.038h-1.306zm15.71 15.027c-1.774 0-3.157-.529-4.15-1.587-.993-1.058-1.49-2.571-1.49-4.54v-1.05c0-2.084.456-3.691 1.368-4.822.911-1.132 2.217-1.697 3.918-1.697 1.66 0 2.909.533 3.748 1.599.838 1.058 1.265 2.629 1.281 4.712v1.697h-6.872c.049.976.264 1.692.647 2.148.382.448.972.671 1.77.671 1.155 0 2.12-.394 2.893-1.184l1.355 2.088c-.423.586-1.038 1.062-1.843 1.428a6.392 6.392 0 01-2.625.537zm-2.173-8.105h3.455v-.318c-.016-.79-.147-1.387-.391-1.794-.244-.407-.667-.61-1.269-.61-.603 0-1.042.215-1.319.646-.268.432-.427 1.123-.476 2.076zm12.964 2.978l1.672-8.325h3.602L167.353 29h-3.296l-3.638-13.208h3.614l1.672 8.325zM176.228 29h-3.467V15.792h3.467V29zm-3.626-16.626c0-.537.171-.976.513-1.318.342-.342.797-.513 1.367-.513s1.025.17 1.367.513c.342.342.513.78.513 1.318 0 .529-.171.968-.513 1.318-.334.35-.789.525-1.367.525s-1.038-.175-1.379-.525c-.334-.35-.501-.789-.501-1.318zm11.072 14.001c1.001 0 1.509-.65 1.526-1.953h3.247c-.016 1.44-.46 2.604-1.331 3.492-.871.887-1.994 1.33-3.369 1.33-1.701 0-2.999-.529-3.894-1.587-.895-1.058-1.351-2.616-1.367-4.675v-1.05c0-2.075.439-3.658 1.318-4.748.887-1.09 2.193-1.636 3.919-1.636 1.456 0 2.604.451 3.442 1.355.838.895 1.266 2.169 1.282 3.82H185.2c-.008-.74-.131-1.31-.367-1.708-.236-.4-.626-.599-1.171-.599-.603 0-1.034.216-1.294.648-.261.423-.399 1.249-.415 2.477v1.343c0 1.075.053 1.827.158 2.259.106.423.281.736.525.94.244.195.59.293 1.038.293zm12.06 2.87c-1.774 0-3.157-.53-4.15-1.588-.993-1.058-1.489-2.571-1.489-4.54v-1.05c0-2.084.455-3.691 1.367-4.822.911-1.132 2.218-1.697 3.918-1.697 1.661 0 2.91.533 3.748 1.599.838 1.058 1.265 2.629 1.282 4.712v1.697h-6.873c.049.976.265 1.692.647 2.148.383.448.973.671 1.77.671 1.156 0 2.12-.394 2.893-1.184l1.355 2.088c-.423.586-1.037 1.062-1.843 1.428a6.392 6.392 0 01-2.625.537zm-2.172-8.106h3.454v-.318c-.016-.79-.146-1.387-.391-1.794-.244-.407-.667-.61-1.269-.61-.602 0-1.042.215-1.318.646-.269.432-.428 1.123-.476 2.076z" fill="#fff"/><path d="M70.947 44.96l1.29-4.3h1.517l-2.52 7.3c-.386 1.067-1.043 1.6-1.968 1.6a2.55 2.55 0 01-.686-.105v-1.102l.27.018c.359 0 .629-.066.808-.2.184-.128.328-.347.434-.655l.205-.545-2.227-6.31h1.536l1.341 4.3zm7.395.288l1.875-4.588h1.781V47h-1.424v-4.195L78.828 47h-.967l-1.752-4.219V47h-1.423v-6.34h1.792l1.864 4.588zM88.97 47h-1.424v-2.56H85.08V47h-1.424v-6.34h1.424v2.643h2.467V40.66h1.424V47zm3.052-4.324h1.395c.52 0 .973.09 1.36.27.386.179.679.431.878.755.203.324.305.701.305 1.131 0 .652-.23 1.176-.692 1.57-.46.395-1.074.594-1.84.598H90.6v-6.34h1.424v2.016zM98.44 47h-1.423v-6.34h1.423V47zm-6.416-3.182v2.045h1.39c.347 0 .62-.086.82-.258.203-.175.304-.423.304-.744 0-.32-.1-.572-.299-.755-.195-.188-.46-.284-.797-.288h-1.418zm10.916 3.3c-.902 0-1.634-.284-2.197-.85-.558-.57-.838-1.328-.838-2.274v-.176c0-.633.121-1.197.364-1.693.246-.5.589-.889 1.031-1.166a2.715 2.715 0 011.476-.416c.864 0 1.53.275 1.998.826.473.55.709 1.33.709 2.338v.574h-4.142c.043.524.217.938.521 1.242.309.305.696.457 1.16.457.653 0 1.184-.263 1.594-.79l.768.732a2.58 2.58 0 01-1.02.885c-.422.207-.896.31-1.424.31zm-.169-5.433c-.391 0-.708.137-.95.41-.238.274-.39.655-.457 1.143h2.713v-.105c-.031-.477-.158-.836-.381-1.078-.222-.246-.531-.37-.925-.37zm11.8.106h-2.056V47h-1.424v-5.209h-2.033v-1.13h5.513v1.13zm3.369 5.326c-.902 0-1.634-.283-2.197-.85-.558-.57-.838-1.328-.838-2.273v-.176c0-.633.121-1.197.364-1.693.246-.5.589-.889 1.031-1.166a2.715 2.715 0 011.476-.416c.864 0 1.53.275 1.998.826.473.55.709 1.33.709 2.338v.574h-4.142c.043.524.217.938.521 1.242.309.305.696.457 1.16.457.653 0 1.184-.263 1.594-.79l.768.732a2.58 2.58 0 01-1.02.885c-.422.207-.896.31-1.424.31zm-.169-5.431c-.391 0-.708.136-.95.41-.238.273-.39.654-.457 1.142h2.713v-.105c-.031-.477-.158-.836-.381-1.078-.222-.246-.531-.37-.925-.37zm6.099 1.06l1.207-2.086h1.582l-1.939 3.123L126.723 47h-1.571l-1.265-2.168-1.26 2.168h-1.582l2.004-3.217-1.934-3.123h1.571l1.183 2.086zM132.998 47h-1.424v-2.56h-2.467V47h-1.423v-6.34h1.423v2.643h2.467V40.66h1.424V47zm1.254-3.228c0-.622.123-1.18.369-1.676.246-.5.592-.883 1.037-1.149.446-.27.957-.404 1.535-.404.856 0 1.549.275 2.08.826.536.55.825 1.281.868 2.191l.005.334c0 .626-.121 1.184-.363 1.676a2.638 2.638 0 01-1.031 1.143c-.445.27-.961.404-1.547.404-.894 0-1.611-.297-2.15-.89-.535-.598-.803-1.393-.803-2.385v-.07zm1.424.123c0 .652.135 1.164.404 1.535.27.367.645.55 1.125.55.481 0 .854-.187 1.119-.562.27-.375.405-.924.405-1.646 0-.641-.139-1.149-.417-1.524a1.31 1.31 0 00-1.119-.563c-.464 0-.834.186-1.107.557-.274.367-.41.918-.41 1.653zm10.969-3.235V47h-1.424v-5.191h-1.793l-.117 2.209c-.075 1.062-.28 1.826-.616 2.29-.332.462-.841.692-1.529.692h-.439l-.006-1.184.293-.029c.312-.043.539-.232.679-.568.145-.34.237-.957.276-1.852l.117-2.707h4.559zm1.248 3.112c0-.622.123-1.18.369-1.676.246-.5.592-.883 1.037-1.149.445-.27.957-.404 1.535-.404.855 0 1.549.275 2.08.826.535.55.824 1.281.867 2.191l.006.334c0 .626-.121 1.184-.363 1.676a2.638 2.638 0 01-1.031 1.143c-.446.27-.961.404-1.547.404-.895 0-1.612-.297-2.151-.89-.535-.598-.802-1.393-.802-2.385v-.07zm1.423.123c0 .652.135 1.164.405 1.535.269.367.644.55 1.125.55.48 0 .853-.187 1.119-.562.269-.375.404-.924.404-1.646 0-.641-.139-1.149-.416-1.524a1.31 1.31 0 00-1.119-.563c-.465 0-.834.186-1.107.557-.274.367-.411.918-.411 1.653zm9.897-2.086h-2.754V47h-1.418v-6.34h4.172v1.149zm4.764-1.149h1.418V47h-1.418v-4.23L161.492 47h-1.418v-6.34h1.418v4.23l2.485-4.23zm6.89 0h1.418V47h-1.418v-4.23L168.383 47h-1.418v-6.34h1.418v4.23l2.484-4.23z" fill="#788891"/><path d="M32.192 13.6c1.133 0 2.09.713 2.45 1.7h9.02a2.603 2.603 0 012.45-1.7c1.44 0 2.61 1.144 2.61 2.55s-1.17 2.55-2.61 2.55a2.603 2.603 0 01-2.45-1.7h-9.021a2.603 2.603 0 01-2.45 1.7c-1.44 0-2.61-1.144-2.61-2.55s1.172-2.55 2.61-2.55zm13.92 3.4a.86.86 0 00.87-.85c0-.47-.39-.85-.87-.85s-.87.38-.87.85c0 .469.39.85.87.85zm-13.92 0a.86.86 0 00.87-.85c0-.47-.39-.85-.87-.85s-.87.38-.87.85c0 .469.39.85.87.85z" fill="#00B2FF"/><path d="M25.231 18.856V13.6c0-.226.091-.442.255-.601l3.48-3.4a.878.878 0 01.615-.25h2.77a2.603 2.603 0 012.45-1.7c1.44 0 2.61 1.145 2.61 2.55 0 1.407-1.17 2.55-2.61 2.55a2.603 2.603 0 01-2.45-1.7h-2.41l-2.97 2.903v4.904c1.01.352 1.74 1.287 1.74 2.394 0 1.406-1.17 2.55-2.61 2.55-1.439 0-2.61-1.144-2.61-2.55 0-1.107.73-2.042 1.74-2.394zm9.57-7.806c.48 0 .87-.38.87-.85s-.39-.85-.87-.85c-.479 0-.87.38-.87.85s.391.85.87.85zm-8.7 11.05a.86.86 0 00.87-.85c0-.47-.39-.85-.87-.85s-.87.38-.87.85c0 .469.39.85.87.85zm-16.531 0c.403 0 .778.096 1.119.255l1.492-1.457V12.75c0-.226.091-.442.255-.601l8.707-8.507a2.46 2.46 0 01-.262-1.092c0-1.406 1.171-2.55 2.61-2.55 1.44 0 2.61 1.144 2.61 2.55s-1.17 2.55-2.61 2.55c-.402 0-.778-.096-1.118-.256l-8.452 8.258v8.148a.837.837 0 01-.255.6l-1.747 1.707c.163.333.262.7.262 1.093 0 1.405-1.171 2.55-2.61 2.55-1.44 0-2.61-1.145-2.61-2.55 0-1.406 1.17-2.55 2.61-2.55zM23.492 3.4c.48 0 .87-.38.87-.85s-.39-.85-.87-.85-.87.38-.87.85.39.85.87.85zM9.571 25.5c.479 0 .87-.381.87-.85a.86.86 0 00-.87-.85.86.86 0 00-.87.85c0 .469.39.85.87.85zM1.74 12.056V8.5c0-.226.091-.442.255-.601l6.09-5.95A.878.878 0 018.7 1.7h4.51A2.603 2.603 0 0115.66 0c1.44 0 2.61 1.144 2.61 2.55S17.1 5.1 15.66 5.1a2.603 2.603 0 01-2.45-1.7H9.06L3.48 8.852v3.204c1.01.352 1.74 1.287 1.74 2.394 0 1.406-1.17 2.55-2.61 2.55C1.171 17 0 15.856 0 14.45c0-1.107.73-2.042 1.74-2.394zM15.66 3.4c.48 0 .87-.38.87-.85s-.39-.85-.87-.85c-.479 0-.87.38-.87.85s.391.85.87.85zM2.61 15.3a.86.86 0 00.87-.85c0-.47-.39-.85-.87-.85s-.87.38-.87.85c0 .469.39.85.87.85zm11.31 30.756V33.843c-1.01-.352-1.74-1.287-1.74-2.394 0-1.405 1.172-2.55 2.61-2.55 1.134 0 2.09.714 2.45 1.7h9.021a2.603 2.603 0 012.45-1.7c1.133 0 2.09.714 2.45 1.7h5.02l3.233-3.157a2.462 2.462 0 01-.262-1.093c0-1.405 1.17-2.55 2.61-2.55 1.439 0 2.61 1.145 2.61 2.55 0 1.406-1.171 2.55-2.61 2.55-.402 0-.778-.096-1.118-.255l-3.487 3.406a.878.878 0 01-.615.25h-5.38a2.603 2.603 0 01-2.45 1.7 2.603 2.603 0 01-2.45-1.7H17.24a2.578 2.578 0 01-1.58 1.543v12.213c1.01.352 1.74 1.287 1.74 2.394 0 1.406-1.171 2.55-2.61 2.55-1.44 0-2.61-1.144-2.61-2.55 0-1.107.73-2.042 1.74-2.394zM41.762 27.2a.86.86 0 00.87-.85c0-.47-.39-.85-.87-.85s-.87.38-.87.85c0 .469.39.85.87.85zm-13.05 5.1c.479 0 .87-.381.87-.85a.86.86 0 00-.87-.85.86.86 0 00-.87.85c0 .469.39.85.87.85zm-13.921 17c.48 0 .87-.382.87-.85 0-.47-.39-.85-.87-.85s-.87.38-.87.85c0 .468.39.85.87.85zm0-17a.86.86 0 00.87-.85c0-.47-.39-.85-.87-.85s-.87.38-.87.85c0 .469.39.85.87.85z" fill="#00B2FF"/><path d="M18.27 17.156V14.45c0-.226.092-.442.256-.601L28.973 3.642a2.46 2.46 0 01-.262-1.092c0-1.406 1.171-2.55 2.61-2.55 1.133 0 2.09.713 2.45 1.7h3.64c.48 0 .87.38.87.85v2.198l3.233 3.158c.34-.16.716-.256 1.118-.256 1.439 0 2.61 1.144 2.61 2.55s-1.171 2.55-2.61 2.55c-1.44 0-2.61-1.144-2.61-2.55 0-.393.098-.76.262-1.092L36.797 5.7a.836.836 0 01-.255-.601V3.4h-2.77a2.603 2.603 0 01-3.569 1.444l-10.192 9.958v2.354c1.01.352 1.74 1.287 1.74 2.394 0 1.405-1.171 2.55-2.61 2.55-1.44 0-2.61-1.145-2.61-2.55 0-1.107.73-2.042 1.74-2.394zm24.362-6.106a.86.86 0 00.87-.85c0-.47-.39-.85-.87-.85s-.87.38-.87.85c0 .469.39.85.87.85zM31.322 3.4c.479 0 .87-.38.87-.85s-.391-.85-.87-.85c-.48 0-.87.38-.87.85s.39.85.87.85zm-12.181 17a.86.86 0 00.87-.85c0-.47-.39-.85-.87-.85s-.87.38-.87.85c0 .469.39.85.87.85z" fill="#00B2FF"/><path d="M20.881 23.8c1.133 0 2.09.713 2.45 1.7h10.24l4.966-4.851a.878.878 0 01.615-.25h9.21l2.1-2.051v-6.946L43.75 4.844c-.34.16-.716.256-1.118.256-1.44 0-2.61-1.144-2.61-2.55S41.192 0 42.632 0c1.439 0 2.61 1.144 2.61 2.55 0 .393-.098.76-.262 1.092l6.968 6.807a.837.837 0 01.254.6v7.65a.837.837 0 01-.255.602l-2.61 2.55a.878.878 0 01-.615.249h-9.21l-4.965 4.85a.878.878 0 01-.615.25H23.33a2.603 2.603 0 01-2.45 1.7c-1.44 0-2.61-1.145-2.61-2.55 0-1.406 1.17-2.55 2.61-2.55zM42.632 1.7c-.48 0-.87.38-.87.85s.39.85.87.85.87-.38.87-.85-.39-.85-.87-.85zM20.881 27.2a.86.86 0 00.87-.85c0-.47-.39-.85-.87-.85s-.87.38-.87.85c0 .469.39.85.87.85zM2.61 20.4c.402 0 .778.096 1.118.256l3.232-3.158v-4.905c-1.01-.351-1.74-1.287-1.74-2.393 0-1.406 1.171-2.55 2.61-2.55 1.44 0 2.61 1.144 2.61 2.55 0 1.107-.73 2.042-1.74 2.393v5.257a.837.837 0 01-.254.6l-3.488 3.407c.164.333.262.7.262 1.093 0 1.106-.73 2.041-1.74 2.393v.655l6.706 6.55a.837.837 0 01.255.602v1.006c1.01.352 1.74 1.287 1.74 2.393 0 1.107-.73 2.042-1.74 2.394v2.014c1.01.352 1.74 1.286 1.74 2.393 0 1.406-1.171 2.55-2.61 2.55-1.44 0-2.61-1.144-2.61-2.55 0-1.107.73-2.041 1.74-2.393v-2.014c-1.01-.352-1.74-1.287-1.74-2.394 0-1.106.73-2.041 1.74-2.393V33.5l-6.706-6.55a.836.836 0 01-.255-.601v-1.007C.73 24.991 0 24.056 0 22.95c0-1.406 1.171-2.55 2.61-2.55zm5.22-9.35c.48 0 .87-.38.87-.85s-.39-.85-.87-.85c-.479 0-.87.38-.87.85s.391.85.87.85zM9.57 44.2c.48 0 .87-.382.87-.85a.86.86 0 00-.87-.85.86.86 0 00-.87.85c0 .468.391.85.87.85zm0-6.8a.86.86 0 00.87-.85.86.86 0 00-.87-.85.86.86 0 00-.87.85c0 .469.391.85.87.85zM2.61 23.8a.86.86 0 00.87-.85c0-.47-.39-.85-.87-.85s-.87.38-.87.85c0 .469.39.85.87.85z" fill="#00B2FF"/></svg>