<svg width="30" height="36" fill="none" xmlns="http://www.w3.org/2000/svg"><path d="M3.22 11.995l-1.501-1.513a2.124 2.124 0 010-2.983 2.081 2.081 0 012.958 0l1.602 1.616a14.58 14.58 0 015.574-2.377V4.64h-1.394a.7.7 0 01-.698-.704V2.11C9.761.946 10.7 0 11.853 0h5.578c1.153 0 2.091.946 2.091 2.11v1.828a.7.7 0 01-.697.703h-1.394v2.097a14.577 14.577 0 015.574 2.377l1.602-1.616a2.081 2.081 0 012.958 0c.816.822.816 2.16 0 2.983l-1.5 1.513a14.829 14.829 0 013.219 9.24c0 8.14-6.569 14.765-14.642 14.765S0 29.376 0 21.234c0-3.37 1.14-6.625 3.22-9.239zm.47-3.502a.694.694 0 00-.985 0 .709.709 0 000 .994l1.44 1.453a14.87 14.87 0 011.02-.96L3.69 8.493zm14.438-6.384a.7.7 0 00-.697-.703h-5.578a.7.7 0 00-.697.703v1.125h6.972V2.11zm-4.88 2.532v1.894a14.875 14.875 0 012.788 0V4.641h-2.789zm13.331 3.852a.694.694 0 00-.986 0L24.12 9.98c.354.303.695.624 1.02.96l1.44-1.453a.708.708 0 000-.994zm-11.937 26.1c7.305 0 13.247-5.992 13.247-13.359 0-3.25-1.17-6.38-3.293-8.816a13.412 13.412 0 00-1.94-1.823 13.178 13.178 0 00-6.026-2.571 13.356 13.356 0 00-3.976 0 13.18 13.18 0 00-6.026 2.571 13.42 13.42 0 00-1.94 1.823 13.409 13.409 0 00-3.293 8.816c0 7.367 5.942 13.36 13.247 13.36z" fill="#00B2FF"/><path d="M14.642 23.344a2.103 2.103 0 01-2.092-2.11c0-.916.583-1.698 1.394-1.988v-5.043a.7.7 0 01.698-.703.7.7 0 01.697.703v5.043a2.112 2.112 0 011.394 1.988c0 1.164-.938 2.11-2.091 2.11zm0-2.813a.7.7 0 00-.697.703.7.7 0 00.697.703.7.7 0 00.697-.703.7.7 0 00-.697-.703z" fill="#00B2FF"/><path d="M7.214 13.816l.034-.038a10.479 10.479 0 014.435-2.662.704.704 0 01.395 1.349 9.065 9.065 0 00-3.33 1.832l.47.474a.708.708 0 010 .994.692.692 0 01-.985 0l-.472-.475a9.095 9.095 0 00-2.157 5.241h.671a.7.7 0 01.697.703.7.7 0 01-.697.703h-.67a9.094 9.094 0 002.156 5.241l.472-.475a.694.694 0 01.986 0 .707.707 0 010 .995l-.472.475a8.94 8.94 0 005.197 2.175v-.676a.7.7 0 01.698-.703.7.7 0 01.697.703v.676a8.94 8.94 0 005.197-2.175l-.472-.475a.707.707 0 010-.995.694.694 0 01.987 0l.471.475a9.096 9.096 0 002.157-5.24h-.67a.7.7 0 01-.698-.704.7.7 0 01.697-.703h.671a9.096 9.096 0 00-2.157-5.24l-.471.474a.691.691 0 01-.986 0 .708.708 0 010-.994l.47-.474a9.06 9.06 0 00-3.33-1.832.704.704 0 01-.471-.873.696.696 0 01.866-.475 10.475 10.475 0 014.393 2.623.693.693 0 01.042.038l.034.037a10.52 10.52 0 013.031 7.42 10.52 10.52 0 01-3.03 7.417l-.035.038-.037.034a10.343 10.343 0 01-7.356 3.057 10.341 10.341 0 01-7.356-3.056l-.038-.035-.033-.037a10.52 10.52 0 01-3.032-7.419 10.52 10.52 0 013.031-7.418z" fill="#00B2FF"/><path d="M14.642 12.094a.7.7 0 01-.698-.703.7.7 0 01.698-.704.7.7 0 01.697.704.7.7 0 01-.697.703z" fill="#00B2FF"/></svg>