<svg width="202" height="51" viewBox="0 0 202 51" fill="none" xmlns="http://www.w3.org/2000/svg">
<path d="M76.9355 24.3369C76.9355 23.6126 76.7484 23.0674 76.374 22.7012C76.0078 22.3268 75.3364 21.9403 74.3599 21.5415C72.5776 20.866 71.2959 20.0767 70.5146 19.1733C69.7334 18.2619 69.3428 17.1877 69.3428 15.9507C69.3428 14.4533 69.8717 13.2529 70.9297 12.3496C71.9958 11.4382 73.3467 10.9824 74.9824 10.9824C76.0729 10.9824 77.0454 11.2144 77.8999 11.6782C78.7544 12.134 79.4095 12.7809 79.8652 13.6191C80.3291 14.4574 80.561 15.4095 80.561 16.4756H76.9844C76.9844 15.6455 76.8053 15.0148 76.4473 14.5835C76.0973 14.144 75.5887 13.9243 74.9214 13.9243C74.2948 13.9243 73.8065 14.1115 73.4565 14.4858C73.1066 14.8521 72.9316 15.3485 72.9316 15.9751C72.9316 16.4634 73.127 16.9069 73.5176 17.3057C73.9082 17.6963 74.5999 18.1032 75.5928 18.5264C77.3262 19.153 78.5835 19.922 79.3647 20.8335C80.1541 21.745 80.5488 22.9046 80.5488 24.3125C80.5488 25.8587 80.0565 27.0672 79.0718 27.938C78.0871 28.8088 76.7484 29.2441 75.0557 29.2441C73.9082 29.2441 72.8625 29.0081 71.9185 28.5361C70.9744 28.0641 70.2339 27.3887 69.6968 26.5098C69.1678 25.6309 68.9033 24.5933 68.9033 23.397H72.5044C72.5044 24.4224 72.7038 25.167 73.1025 25.6309C73.5013 26.0947 74.1523 26.3267 75.0557 26.3267C76.3089 26.3267 76.9355 25.6634 76.9355 24.3369ZM86.0054 15.792L86.103 17.0127C86.8761 16.0361 87.8975 15.5479 89.167 15.5479C90.4854 15.5479 91.4172 16.1419 91.9624 17.3301C92.7192 16.1419 93.7975 15.5479 95.1973 15.5479C97.5085 15.5479 98.6925 17.147 98.7495 20.3452V29H95.2949V20.5649C95.2949 19.8 95.1891 19.2547 94.9775 18.9292C94.766 18.6037 94.4079 18.4409 93.9033 18.4409C93.2604 18.4409 92.7803 18.8356 92.4629 19.625L92.4873 20.04V29H89.0327V20.5894C89.0327 19.8325 88.931 19.2873 88.7275 18.9536C88.5241 18.6118 88.1619 18.4409 87.6411 18.4409C87.047 18.4409 86.575 18.7624 86.2251 19.4053V29H82.7705V15.792H86.0054ZM107.587 29C107.49 28.7965 107.392 28.4548 107.294 27.9746C106.676 28.821 105.838 29.2441 104.78 29.2441C103.673 29.2441 102.753 28.8779 102.021 28.1455C101.297 27.4131 100.935 26.465 100.935 25.3013C100.935 23.9178 101.374 22.8477 102.253 22.0908C103.14 21.334 104.414 20.9474 106.074 20.9312H107.124V19.8691C107.124 19.2751 107.022 18.856 106.818 18.6118C106.615 18.3677 106.318 18.2456 105.927 18.2456C105.065 18.2456 104.633 18.7502 104.633 19.7593H101.179C101.179 18.5386 101.634 17.5335 102.546 16.7441C103.465 15.9466 104.625 15.5479 106.025 15.5479C107.473 15.5479 108.592 15.9263 109.382 16.6831C110.179 17.4318 110.578 18.506 110.578 19.9058V26.1191C110.594 27.2585 110.757 28.1496 111.066 28.7925V29H107.587ZM105.549 26.5342C105.931 26.5342 106.257 26.4569 106.525 26.3022C106.794 26.1476 106.993 25.9645 107.124 25.7529V23.0063H106.293C105.708 23.0063 105.244 23.1935 104.902 23.5679C104.568 23.9422 104.401 24.4427 104.401 25.0693C104.401 26.0459 104.784 26.5342 105.549 26.5342ZM119.599 19.1245L118.452 19.0269C117.508 19.0269 116.869 19.4419 116.535 20.272V29H113.068V15.792H116.328L116.425 17.2202C116.971 16.1053 117.723 15.5479 118.684 15.5479C119.074 15.5479 119.392 15.6007 119.636 15.7065L119.599 19.1245ZM126.008 12.5449V15.792H127.778V18.3921H126.008V24.9473C126.008 25.4681 126.077 25.8262 126.215 26.0215C126.362 26.2168 126.639 26.3145 127.045 26.3145C127.379 26.3145 127.652 26.286 127.863 26.229L127.839 28.9146C127.253 29.1343 126.618 29.2441 125.935 29.2441C123.705 29.2441 122.578 27.9665 122.553 25.4111V18.3921H121.027V15.792H122.553V12.5449H126.008ZM135.615 29V11.2266H140.314C142.39 11.2266 144.042 11.8857 145.271 13.2041C146.507 14.5225 147.138 16.3291 147.163 18.624V21.5049C147.163 23.8405 146.544 25.6756 145.307 27.0103C144.078 28.3368 142.382 29 140.217 29H135.615ZM139.204 14.2173V26.0215H140.278C141.474 26.0215 142.316 25.7082 142.805 25.0815C143.293 24.4468 143.549 23.3563 143.574 21.8101V18.7217C143.574 17.0615 143.342 15.9059 142.878 15.2549C142.414 14.5957 141.625 14.2498 140.51 14.2173H139.204ZM154.914 29.2441C153.14 29.2441 151.757 28.7152 150.764 27.6572C149.771 26.5993 149.274 25.0856 149.274 23.1162V22.0664C149.274 19.9831 149.73 18.3758 150.642 17.2446C151.553 16.1134 152.859 15.5479 154.56 15.5479C156.22 15.5479 157.469 16.0809 158.308 17.147C159.146 18.2049 159.573 19.7756 159.589 21.8589V23.5557H152.717C152.766 24.5322 152.981 25.2484 153.364 25.7041C153.746 26.1517 154.336 26.3755 155.134 26.3755C156.289 26.3755 157.254 25.9808 158.027 25.1914L159.382 27.2788C158.959 27.8647 158.344 28.3408 157.539 28.707C156.733 29.0651 155.858 29.2441 154.914 29.2441ZM152.741 21.1387H156.196V20.8213C156.18 20.0319 156.049 19.4338 155.805 19.0269C155.561 18.62 155.138 18.4165 154.536 18.4165C153.933 18.4165 153.494 18.6322 153.217 19.0635C152.949 19.4948 152.79 20.1865 152.741 21.1387ZM165.705 24.1172L167.377 15.792H170.979L167.353 29H164.057L160.419 15.792H164.033L165.705 24.1172ZM176.228 29H172.761V15.792H176.228V29ZM172.602 12.374C172.602 11.8369 172.773 11.3975 173.115 11.0557C173.457 10.7139 173.912 10.543 174.482 10.543C175.052 10.543 175.507 10.7139 175.849 11.0557C176.191 11.3975 176.362 11.8369 176.362 12.374C176.362 12.903 176.191 13.3424 175.849 13.6924C175.515 14.0423 175.06 14.2173 174.482 14.2173C173.904 14.2173 173.444 14.0423 173.103 13.6924C172.769 13.3424 172.602 12.903 172.602 12.374ZM183.674 26.3755C184.675 26.3755 185.183 25.7244 185.2 24.4224H188.447C188.431 25.8628 187.987 27.0265 187.116 27.9136C186.245 28.8006 185.122 29.2441 183.747 29.2441C182.046 29.2441 180.748 28.7152 179.853 27.6572C178.958 26.5993 178.502 25.0409 178.486 22.9819V21.9321C178.486 19.8569 178.925 18.2741 179.804 17.1836C180.691 16.0931 181.997 15.5479 183.723 15.5479C185.179 15.5479 186.327 15.9995 187.165 16.9028C188.003 17.798 188.431 19.0716 188.447 20.7236H185.2C185.192 19.9831 185.069 19.4134 184.833 19.0146C184.597 18.6159 184.207 18.4165 183.662 18.4165C183.059 18.4165 182.628 18.6322 182.368 19.0635C182.107 19.4867 181.969 20.3127 181.953 21.5415V22.8843C181.953 23.9585 182.006 24.7113 182.111 25.1426C182.217 25.5658 182.392 25.8791 182.636 26.0825C182.88 26.2778 183.226 26.3755 183.674 26.3755ZM195.734 29.2441C193.96 29.2441 192.577 28.7152 191.584 27.6572C190.591 26.5993 190.095 25.0856 190.095 23.1162V22.0664C190.095 19.9831 190.55 18.3758 191.462 17.2446C192.373 16.1134 193.68 15.5479 195.38 15.5479C197.041 15.5479 198.29 16.0809 199.128 17.147C199.966 18.2049 200.393 19.7756 200.41 21.8589V23.5557H193.537C193.586 24.5322 193.802 25.2484 194.184 25.7041C194.567 26.1517 195.157 26.3755 195.954 26.3755C197.11 26.3755 198.074 25.9808 198.847 25.1914L200.202 27.2788C199.779 27.8647 199.165 28.3408 198.359 28.707C197.553 29.0651 196.678 29.2441 195.734 29.2441ZM193.562 21.1387H197.016V20.8213C197 20.0319 196.87 19.4338 196.625 19.0269C196.381 18.62 195.958 18.4165 195.356 18.4165C194.754 18.4165 194.314 18.6322 194.038 19.0635C193.769 19.4948 193.61 20.1865 193.562 21.1387Z" fill="white"/>
<path d="M70.9473 44.9609L72.2363 40.6602H73.7539L71.2344 47.9609C70.8477 49.0273 70.1914 49.5605 69.2656 49.5605C69.0586 49.5605 68.8301 49.5254 68.5801 49.4551V48.3535L68.8496 48.3711C69.209 48.3711 69.4785 48.3047 69.6582 48.1719C69.8418 48.043 69.9863 47.8242 70.0918 47.5156L70.2969 46.9707L68.0703 40.6602H69.6055L70.9473 44.9609ZM78.3418 45.248L80.2168 40.6602H81.998V47H80.5742V42.8047L78.8281 47H77.8613L76.1094 42.7812V47H74.6855V40.6602H76.4785L78.3418 45.248ZM88.9707 47H87.5469V44.4395H85.0801V47H83.6562V40.6602H85.0801V43.3027H87.5469V40.6602H88.9707V47ZM92.0234 42.6758H93.418C93.9375 42.6758 94.3906 42.7656 94.7773 42.9453C95.1641 43.125 95.457 43.377 95.6562 43.7012C95.8594 44.0254 95.9609 44.4023 95.9609 44.832C95.9609 45.4844 95.7305 46.0078 95.2695 46.4023C94.8086 46.7969 94.1953 46.9961 93.4297 47H90.5996V40.6602H92.0234V42.6758ZM98.4395 47H97.0156V40.6602H98.4395V47ZM92.0234 43.8184V45.8633H93.4121C93.7598 45.8633 94.0332 45.7773 94.2324 45.6055C94.4355 45.4297 94.5371 45.1816 94.5371 44.8613C94.5371 44.541 94.4375 44.2891 94.2383 44.1055C94.043 43.918 93.7773 43.8223 93.4414 43.8184H92.0234ZM102.939 47.1172C102.037 47.1172 101.305 46.834 100.742 46.2676C100.184 45.6973 99.9043 44.9395 99.9043 43.9941V43.8184C99.9043 43.1855 100.025 42.6211 100.268 42.125C100.514 41.625 100.857 41.2363 101.299 40.959C101.74 40.6816 102.232 40.543 102.775 40.543C103.639 40.543 104.305 40.8184 104.773 41.3691C105.246 41.9199 105.482 42.6992 105.482 43.707V44.2812H101.34C101.383 44.8047 101.557 45.2188 101.861 45.5234C102.17 45.8281 102.557 45.9805 103.021 45.9805C103.674 45.9805 104.205 45.7168 104.615 45.1895L105.383 45.9219C105.129 46.3008 104.789 46.5957 104.363 46.8066C103.941 47.0137 103.467 47.1172 102.939 47.1172ZM102.77 41.6855C102.379 41.6855 102.062 41.8223 101.82 42.0957C101.582 42.3691 101.43 42.75 101.363 43.2383H104.076V43.1328C104.045 42.6562 103.918 42.2969 103.695 42.0547C103.473 41.8086 103.164 41.6855 102.77 41.6855ZM114.57 41.791H112.514V47H111.09V41.791H109.057V40.6602H114.57V41.791ZM117.939 47.1172C117.037 47.1172 116.305 46.834 115.742 46.2676C115.184 45.6973 114.904 44.9395 114.904 43.9941V43.8184C114.904 43.1855 115.025 42.6211 115.268 42.125C115.514 41.625 115.857 41.2363 116.299 40.959C116.74 40.6816 117.232 40.543 117.775 40.543C118.639 40.543 119.305 40.8184 119.773 41.3691C120.246 41.9199 120.482 42.6992 120.482 43.707V44.2812H116.34C116.383 44.8047 116.557 45.2188 116.861 45.5234C117.17 45.8281 117.557 45.9805 118.021 45.9805C118.674 45.9805 119.205 45.7168 119.615 45.1895L120.383 45.9219C120.129 46.3008 119.789 46.5957 119.363 46.8066C118.941 47.0137 118.467 47.1172 117.939 47.1172ZM117.77 41.6855C117.379 41.6855 117.062 41.8223 116.82 42.0957C116.582 42.3691 116.43 42.75 116.363 43.2383H119.076V43.1328C119.045 42.6562 118.918 42.2969 118.695 42.0547C118.473 41.8086 118.164 41.6855 117.77 41.6855ZM123.869 42.7461L125.076 40.6602H126.658L124.719 43.7832L126.723 47H125.152L123.887 44.832L122.627 47H121.045L123.049 43.7832L121.115 40.6602H122.686L123.869 42.7461ZM132.998 47H131.574V44.4395H129.107V47H127.684V40.6602H129.107V43.3027H131.574V40.6602H132.998V47ZM134.252 43.7715C134.252 43.1504 134.375 42.5918 134.621 42.0957C134.867 41.5957 135.213 41.2129 135.658 40.9473C136.104 40.6777 136.615 40.543 137.193 40.543C138.049 40.543 138.742 40.8184 139.273 41.3691C139.809 41.9199 140.098 42.6504 140.141 43.5605L140.146 43.8945C140.146 44.5195 140.025 45.0781 139.783 45.5703C139.545 46.0625 139.201 46.4434 138.752 46.7129C138.307 46.9824 137.791 47.1172 137.205 47.1172C136.311 47.1172 135.594 46.8203 135.055 46.2266C134.52 45.6289 134.252 44.834 134.252 43.8418V43.7715ZM135.676 43.8945C135.676 44.5469 135.811 45.0586 136.08 45.4297C136.35 45.7969 136.725 45.9805 137.205 45.9805C137.686 45.9805 138.059 45.793 138.324 45.418C138.594 45.043 138.729 44.4941 138.729 43.7715C138.729 43.1309 138.59 42.623 138.312 42.248C138.039 41.873 137.666 41.6855 137.193 41.6855C136.729 41.6855 136.359 41.8711 136.086 42.2422C135.812 42.6094 135.676 43.1602 135.676 43.8945ZM146.645 40.6602V47H145.221V41.8086H143.428L143.311 44.0176C143.236 45.0801 143.031 45.8438 142.695 46.3086C142.363 46.7695 141.854 47 141.166 47H140.727L140.721 45.8164L141.014 45.7871C141.326 45.7441 141.553 45.5547 141.693 45.2188C141.838 44.8789 141.93 44.2617 141.969 43.3672L142.086 40.6602H146.645ZM147.893 43.7715C147.893 43.1504 148.016 42.5918 148.262 42.0957C148.508 41.5957 148.854 41.2129 149.299 40.9473C149.744 40.6777 150.256 40.543 150.834 40.543C151.689 40.543 152.383 40.8184 152.914 41.3691C153.449 41.9199 153.738 42.6504 153.781 43.5605L153.787 43.8945C153.787 44.5195 153.666 45.0781 153.424 45.5703C153.186 46.0625 152.842 46.4434 152.393 46.7129C151.947 46.9824 151.432 47.1172 150.846 47.1172C149.951 47.1172 149.234 46.8203 148.695 46.2266C148.16 45.6289 147.893 44.834 147.893 43.8418V43.7715ZM149.316 43.8945C149.316 44.5469 149.451 45.0586 149.721 45.4297C149.99 45.7969 150.365 45.9805 150.846 45.9805C151.326 45.9805 151.699 45.793 151.965 45.418C152.234 45.043 152.369 44.4941 152.369 43.7715C152.369 43.1309 152.23 42.623 151.953 42.248C151.68 41.873 151.307 41.6855 150.834 41.6855C150.369 41.6855 150 41.8711 149.727 42.2422C149.453 42.6094 149.316 43.1602 149.316 43.8945ZM159.213 41.8086H156.459V47H155.041V40.6602H159.213V41.8086ZM163.977 40.6602H165.395V47H163.977V42.7695L161.492 47H160.074V40.6602H161.492V44.8906L163.977 40.6602ZM170.867 40.6602H172.285V47H170.867V42.7695L168.383 47H166.965V40.6602H168.383V44.8906L170.867 40.6602Z" fill="#788891"/>
<path d="M32.1917 13.5999C33.3245 13.5999 34.2815 14.313 34.6417 15.2998H43.6623C44.0225 14.313 44.9795 13.5999 46.1123 13.5999C47.5513 13.5999 48.7224 14.7439 48.7224 16.1498C48.7224 17.5557 47.5513 18.6998 46.1123 18.6998C44.9795 18.6998 44.0225 17.9866 43.6623 16.9998H34.6408C34.2806 17.9866 33.3236 18.6998 32.1908 18.6998C30.7518 18.6998 29.5807 17.5557 29.5807 16.1498C29.5807 14.7439 30.7526 13.5999 32.1917 13.5999ZM46.1123 16.9998C46.5917 16.9998 46.9823 16.619 46.9823 16.1498C46.9823 15.6806 46.5917 15.2998 46.1123 15.2998C45.6329 15.2998 45.2423 15.6806 45.2423 16.1498C45.2423 16.619 45.6329 16.9998 46.1123 16.9998ZM32.1917 16.9998C32.6711 16.9998 33.0617 16.619 33.0617 16.1498C33.0617 15.6806 32.6711 15.2998 32.1917 15.2998C31.7123 15.2998 31.3216 15.6806 31.3216 16.1498C31.3216 16.619 31.7123 16.9998 32.1917 16.9998Z" fill="#00B2FF"/>
<path d="M25.2311 18.8561V13.5998C25.2311 13.3737 25.3224 13.1578 25.486 12.9989L28.9662 9.59892C29.1288 9.43912 29.3507 9.34987 29.5813 9.34987H32.3515C32.7117 8.36304 33.6687 7.6499 34.8015 7.6499C36.2405 7.6499 37.4116 8.79398 37.4116 10.1999C37.4116 11.6057 36.2405 12.7498 34.8015 12.7498C33.6687 12.7498 32.7117 12.0367 32.3515 11.0498H29.9415L26.9712 13.9517V18.8561C27.9813 19.208 28.7112 20.143 28.7112 21.2497C28.7112 22.6556 27.5402 23.7996 26.1011 23.7996C24.6621 23.7996 23.491 22.6556 23.491 21.2497C23.491 20.143 24.221 19.208 25.2311 18.8561ZM34.8015 11.0498C35.2809 11.0498 35.6715 10.6691 35.6715 10.1999C35.6715 9.73067 35.2809 9.34987 34.8015 9.34987C34.3221 9.34987 33.9315 9.73067 33.9315 10.1999C33.9315 10.6691 34.3221 11.0498 34.8015 11.0498ZM26.1011 22.0997C26.5805 22.0997 26.9712 21.7189 26.9712 21.2497C26.9712 20.7805 26.5805 20.3997 26.1011 20.3997C25.6217 20.3997 25.2311 20.7805 25.2311 21.2497C25.2311 21.7189 25.6217 22.0997 26.1011 22.0997Z" fill="#00B2FF"/>
<path d="M9.57058 22.0996C9.97254 22.0996 10.3484 22.1957 10.6886 22.3555L12.1807 20.8978V12.7498C12.1807 12.5237 12.272 12.3078 12.4356 12.1488L21.143 3.64219C20.9794 3.30984 20.8811 2.94265 20.8811 2.54996C20.8811 1.14408 22.0522 0 23.4912 0C24.9302 0 26.1013 1.14408 26.1013 2.54996C26.1013 3.95583 24.9302 5.09992 23.4912 5.09992C23.0892 5.09992 22.7134 5.00387 22.3732 4.84407L13.9208 13.1017V21.2496C13.9208 21.4757 13.8294 21.6916 13.6659 21.8506L11.9188 23.5574C12.0824 23.8897 12.1807 24.2569 12.1807 24.6496C12.1807 26.0555 11.0096 27.1995 9.57058 27.1995C8.13153 27.1995 6.96046 26.0555 6.96046 24.6496C6.96046 23.2437 8.13153 22.0996 9.57058 22.0996ZM23.4912 3.39994C23.9706 3.39994 24.3612 3.01915 24.3612 2.54996C24.3612 2.08077 23.9706 1.69997 23.4912 1.69997C23.0118 1.69997 22.6212 2.08077 22.6212 2.54996C22.6212 3.01915 23.0118 3.39994 23.4912 3.39994ZM9.57058 25.4996C10.05 25.4996 10.4406 25.1188 10.4406 24.6496C10.4406 24.1804 10.05 23.7996 9.57058 23.7996C9.09119 23.7996 8.70054 24.1804 8.70054 24.6496C8.70054 25.1188 9.09119 25.4996 9.57058 25.4996Z" fill="#00B2FF"/>
<path d="M1.74001 12.0562V8.49986C1.74001 8.27376 1.83136 8.05787 1.99493 7.89892L8.0852 1.94902C8.2479 1.78922 8.46976 1.69997 8.70032 1.69997H13.2106C13.5708 0.713138 14.5278 0 15.6606 0C17.0997 0 18.2708 1.14408 18.2708 2.54996C18.2708 3.95583 17.0997 5.09991 15.6606 5.09991C14.5278 5.09991 13.5708 4.38678 13.2106 3.39994H9.06052L3.48009 8.85175V12.0562C4.4902 12.4081 5.22017 13.3431 5.22017 14.4498C5.22017 15.8556 4.04909 16.9997 2.61005 16.9997C1.17101 16.9997 -6.67572e-05 15.8556 -6.67572e-05 14.4498C-6.67572e-05 13.3431 0.729896 12.4081 1.74001 12.0562ZM15.6606 3.39994C16.14 3.39994 16.5307 3.01915 16.5307 2.54996C16.5307 2.08077 16.14 1.69997 15.6606 1.69997C15.1812 1.69997 14.7906 2.08077 14.7906 2.54996C14.7906 3.01915 15.1812 3.39994 15.6606 3.39994ZM2.61005 15.2997C3.08944 15.2997 3.48009 14.919 3.48009 14.4498C3.48009 13.9806 3.08944 13.5998 2.61005 13.5998C2.13066 13.5998 1.74001 13.9806 1.74001 14.4498C1.74001 14.919 2.13066 15.2997 2.61005 15.2997Z" fill="#00B2FF"/>
<path d="M13.9198 46.0564V33.843C12.9106 33.4911 12.1806 32.5561 12.1806 31.4494C12.1806 30.0436 13.3517 28.8995 14.7908 28.8995C15.9235 28.8995 16.8806 29.6126 17.2408 30.5994H26.2613C26.6215 29.6126 27.5786 28.8995 28.7114 28.8995C29.8442 28.8995 30.8012 29.6126 31.1614 30.5994H36.1815L39.4137 27.4417C39.2502 27.1094 39.1518 26.7422 39.1518 26.3495C39.1518 24.9436 40.3229 23.7996 41.762 23.7996C43.201 23.7996 44.3721 24.9436 44.3721 26.3495C44.3721 27.7554 43.201 28.8995 41.762 28.8995C41.36 28.8995 40.9841 28.8034 40.644 28.6436L37.1568 32.0504C36.9941 32.2102 36.7723 32.2994 36.5417 32.2994H31.1614C30.8012 33.2863 29.8442 33.9994 28.7114 33.9994C27.5786 33.9994 26.6215 33.2863 26.2613 32.2994H17.2399C16.9772 33.0194 16.3968 33.5863 15.6599 33.843V46.0564C16.67 46.4083 17.4 47.3433 17.4 48.45C17.4 49.8559 16.2289 51 14.7899 51C13.3508 51 12.1798 49.8559 12.1798 48.45C12.1798 47.3433 12.9097 46.4083 13.9198 46.0564ZM41.762 27.1995C42.2413 27.1995 42.632 26.8187 42.632 26.3495C42.632 25.8803 42.2413 25.4995 41.762 25.4995C41.2826 25.4995 40.8919 25.8803 40.8919 26.3495C40.8919 26.8187 41.2826 27.1995 41.762 27.1995ZM28.7114 32.2994C29.1908 32.2994 29.5814 31.9186 29.5814 31.4494C29.5814 30.9802 29.1908 30.5994 28.7114 30.5994C28.232 30.5994 27.8413 30.9802 27.8413 31.4494C27.8413 31.9186 28.232 32.2994 28.7114 32.2994ZM14.7908 49.2991C15.2701 49.2991 15.6608 48.9183 15.6608 48.4491C15.6608 47.98 15.2701 47.5992 14.7908 47.5992C14.3114 47.5992 13.9207 47.98 13.9207 48.4491C13.9207 48.9183 14.3114 49.2991 14.7908 49.2991ZM14.7908 32.2994C15.2701 32.2994 15.6608 31.9186 15.6608 31.4494C15.6608 30.9802 15.2701 30.5994 14.7908 30.5994C14.3114 30.5994 13.9207 30.9802 13.9207 31.4494C13.9207 31.9186 14.3114 32.2994 14.7908 32.2994Z" fill="#00B2FF"/>
<path d="M18.2707 17.1561V14.4498C18.2707 14.2237 18.3621 14.0078 18.5257 13.8488L28.9731 3.64219C28.8095 3.30984 28.7112 2.94265 28.7112 2.54996C28.7112 1.14408 29.8823 0 31.3213 0C32.4541 0 33.4112 0.713138 33.7714 1.69997H37.4116C37.8919 1.69997 38.2816 2.07992 38.2816 2.54996V4.74802L41.5138 7.90572C41.854 7.74592 42.2299 7.64987 42.6318 7.64987C44.0709 7.64987 45.2419 8.79395 45.2419 10.1998C45.2419 11.6057 44.0709 12.7498 42.6318 12.7498C41.1928 12.7498 40.0217 11.6057 40.0217 10.1998C40.0217 9.80714 40.12 9.43994 40.2836 9.1076L36.7965 5.70085C36.6329 5.54191 36.5416 5.32601 36.5416 5.09991V3.39994H33.7714C33.4112 4.38678 32.4541 5.09991 31.3213 5.09991C30.9194 5.09991 30.5435 5.00387 30.2033 4.84407L20.0108 14.8017V17.1561C21.0209 17.508 21.7509 18.443 21.7509 19.5497C21.7509 20.9555 20.5798 22.0996 19.1408 22.0996C17.7017 22.0996 16.5307 20.9555 16.5307 19.5497C16.5307 18.443 17.2606 17.508 18.2707 17.1561ZM42.6318 11.0498C43.1112 11.0498 43.5019 10.669 43.5019 10.1998C43.5019 9.73064 43.1112 9.34984 42.6318 9.34984C42.1524 9.34984 41.7618 9.73064 41.7618 10.1998C41.7618 10.669 42.1524 11.0498 42.6318 11.0498ZM31.3213 3.39994C31.8007 3.39994 32.1914 3.01915 32.1914 2.54996C32.1914 2.08077 31.8007 1.69997 31.3213 1.69997C30.8419 1.69997 30.4513 2.08077 30.4513 2.54996C30.4513 3.01915 30.8419 3.39994 31.3213 3.39994ZM19.1408 20.3997C19.6202 20.3997 20.0108 20.0189 20.0108 19.5497C20.0108 19.0805 19.6202 18.6997 19.1408 18.6997C18.6614 18.6997 18.2707 19.0805 18.2707 19.5497C18.2707 20.0189 18.6614 20.3997 19.1408 20.3997Z" fill="#00B2FF"/>
<path d="M20.881 23.7996C22.0138 23.7996 22.9708 24.5127 23.331 25.4996H33.5714L38.5367 20.6487C38.6994 20.4889 38.9212 20.3997 39.1518 20.3997H48.362L50.4623 18.3478V11.4017L43.75 4.84407C43.4098 5.00387 43.0339 5.09991 42.632 5.09991C41.1929 5.09991 40.0218 3.95583 40.0218 2.54996C40.0218 1.14408 41.1929 0 42.632 0C44.071 0 45.2421 1.14408 45.2421 2.54996C45.2421 2.94265 45.1438 3.30984 44.9802 3.64219L51.9475 10.4489C52.111 10.6078 52.2024 10.8237 52.2024 11.0498V18.6997C52.2024 18.9258 52.111 19.1417 51.9475 19.3006L49.3374 21.8506C49.1747 22.0104 48.9528 22.0996 48.7222 22.0996H39.512L34.5467 26.9505C34.384 27.1103 34.1621 27.1995 33.9316 27.1995H23.331C22.9708 28.1864 22.0138 28.8995 20.881 28.8995C19.4419 28.8995 18.2709 27.7554 18.2709 26.3496C18.2709 24.9437 19.4419 23.7996 20.881 23.7996ZM42.632 1.69997C42.1526 1.69997 41.7619 2.08077 41.7619 2.54996C41.7619 3.01915 42.1526 3.39994 42.632 3.39994C43.1114 3.39994 43.502 3.01915 43.502 2.54996C43.502 2.08077 43.1114 1.69997 42.632 1.69997ZM20.881 27.1995C21.3604 27.1995 21.751 26.8188 21.751 26.3496C21.751 25.8804 21.3604 25.4996 20.881 25.4996C20.4016 25.4996 20.0109 25.8804 20.0109 26.3496C20.0109 26.8188 20.4016 27.1995 20.881 27.1995Z" fill="#00B2FF"/>
<path d="M2.61024 20.3997C3.01219 20.3997 3.38805 20.4957 3.72824 20.6555L6.96043 17.4978V12.5934C5.95032 12.2415 5.22035 11.3065 5.22035 10.1999C5.22035 8.79398 6.39143 7.6499 7.83047 7.6499C9.26951 7.6499 10.4406 8.79398 10.4406 10.1999C10.4406 11.3065 9.71062 12.2415 8.70051 12.5934V17.8497C8.70051 18.0758 8.60915 18.2917 8.44559 18.4507L4.95847 21.8574C5.12204 22.1898 5.22035 22.557 5.22035 22.9496C5.22035 24.0563 4.49039 24.9913 3.48027 25.3432V25.9977L10.1857 32.5485C10.3492 32.7075 10.4406 32.9234 10.4406 33.1495V34.1559C11.4507 34.5078 12.1807 35.4427 12.1807 36.5494C12.1807 37.6561 11.4507 38.5911 10.4406 38.943V40.9566C11.4507 41.3085 12.1807 42.2435 12.1807 43.3502C12.1807 44.756 11.0096 45.9001 9.57055 45.9001C8.1315 45.9001 6.96043 44.756 6.96043 43.3502C6.96043 42.2435 7.69039 41.3085 8.70051 40.9566V38.943C7.69039 38.5911 6.96043 37.6561 6.96043 36.5494C6.96043 35.4427 7.69039 34.5078 8.70051 34.1559V33.5014L1.99512 26.9505C1.83155 26.7916 1.7402 26.5757 1.7402 26.3496V25.3432C0.730082 24.9913 0.00011909 24.0563 0.00011909 22.9496C0.00011909 21.5438 1.17119 20.3997 2.61024 20.3997ZM7.83047 11.0498C8.30986 11.0498 8.70051 10.6691 8.70051 10.1999C8.70051 9.73067 8.30986 9.34987 7.83047 9.34987C7.35108 9.34987 6.96043 9.73067 6.96043 10.1999C6.96043 10.6691 7.35108 11.0498 7.83047 11.0498ZM9.57055 44.1993C10.0499 44.1993 10.4406 43.8185 10.4406 43.3493C10.4406 42.8801 10.0499 42.4993 9.57055 42.4993C9.09116 42.4993 8.70051 42.8801 8.70051 43.3493C8.70051 43.8185 9.09116 44.1993 9.57055 44.1993ZM9.57055 37.3994C10.0499 37.3994 10.4406 37.0186 10.4406 36.5494C10.4406 36.0802 10.0499 35.6994 9.57055 35.6994C9.09116 35.6994 8.70051 36.0802 8.70051 36.5494C8.70051 37.0186 9.09116 37.3994 9.57055 37.3994ZM2.61024 23.7996C3.08963 23.7996 3.48027 23.4188 3.48027 22.9496C3.48027 22.4805 3.08963 22.0997 2.61024 22.0997C2.13084 22.0997 1.7402 22.4805 1.7402 22.9496C1.7402 23.4188 2.13084 23.7996 2.61024 23.7996Z" fill="#00B2FF"/>
</svg>
